<?xml version="1.0" encoding="UTF-8" standalone="no"?>
<!-- Created with Inkscape (http://www.inkscape.org/) -->

<svg
   xmlns:dc="http://purl.org/dc/elements/1.1/"
   xmlns:cc="http://creativecommons.org/ns#"
   xmlns:rdf="http://www.w3.org/1999/02/22-rdf-syntax-ns#"
   xmlns:svg="http://www.w3.org/2000/svg"
   xmlns="http://www.w3.org/2000/svg"
   xmlns:sodipodi="http://sodipodi.sourceforge.net/DTD/sodipodi-0.dtd"
   xmlns:inkscape="http://www.inkscape.org/namespaces/inkscape"
   width="500"
   height="234.168"
   viewBox="0 0 500 234.168"
   id="svg2"
   version="1.1"
   inkscape:version="0.91 r13725"
   sodipodi:docname="LincolnAtheistsFullColorLogo.svg"
   inkscape:export-filename="C:\Users\ryan.mcmaster\Google Drive\Lincoln Atheists Share Folder\Lincoln Atheist Standards\Possible Icons\StarCityPride\logo162x229.png"
   inkscape:export-xdpi="19.59"
   inkscape:export-ydpi="19.59">
  <defs
     id="defs4">
    <inkscape:perspective
       sodipodi:type="inkscape:persp3d"
       inkscape:vp_x="-1301.8374 : 583.5993 : 1"
       inkscape:vp_y="85.882782 : 1028.6626 : 0"
       inkscape:vp_z="3423.1931 : 394.52728 : 1"
       inkscape:persp3d-origin="577.17008 : 281.49295 : 1"
       id="perspective4140" />
  </defs>
  <sodipodi:namedview
     id="base"
     pagecolor="#ffffff"
     bordercolor="#666666"
     borderopacity="1.0"
     inkscape:pageopacity="0.0"
     inkscape:pageshadow="2"
     inkscape:zoom="2"
     inkscape:cx="250"
     inkscape:cy="102.93312"
     inkscape:document-units="px"
     inkscape:current-layer="layer3"
     showgrid="false"
     inkscape:showpageshadow="true"
     showborder="true"
     units="px"
     showguides="true"
     inkscape:guide-bbox="true"
     inkscape:window-width="1920"
     inkscape:window-height="976"
     inkscape:window-x="1272"
     inkscape:window-y="74"
     inkscape:window-maximized="1"
     fit-margin-top="0"
     fit-margin-left="0"
     fit-margin-right="0"
     fit-margin-bottom="0"
     borderlayer="false">
    <inkscape:grid
       type="xygrid"
       id="grid4442"
       empcolor="#f5f5fc"
       empopacity="0.25098039"
       originx="300.03959"
       originy="-119.97937" />
  </sodipodi:namedview>
  <metadata
     id="metadata7">
    <rdf:RDF>
      <cc:Work
         rdf:about="">
        <dc:format>image/svg+xml</dc:format>
        <dc:type
           rdf:resource="http://purl.org/dc/dcmitype/StillImage" />
        <dc:title />
      </cc:Work>
    </rdf:RDF>
  </metadata>
  <g
     inkscape:label="Layer 1"
     inkscape:groupmode="layer"
     id="layer1"
     transform="translate(300.03959,-698.21482)">
    <path
       style="fill:#000000"
       inkscape:connector-curvature="0"
       d="m -300.03959,698.21532 500,0 0,234.1675 -500,0 0,-234.1675 z"
       id="path4212" />
    <flowRoot
       xml:space="preserve"
       id="flowRoot4412"
       style="font-style:normal;font-variant:normal;font-weight:normal;font-stretch:normal;font-size:180px;line-height:125%;font-family:'Times New Roman';-inkscape-font-specification:'Times New Roman, Normal';text-align:start;letter-spacing:0px;word-spacing:0px;writing-mode:lr-tb;text-anchor:start;fill:#ffffff;fill-opacity:1;stroke:none;stroke-width:1px;stroke-linecap:butt;stroke-linejoin:miter;stroke-opacity:1"
       transform="matrix(0.31644406,0,0,0.31644406,-205.09384,734.8853)"><flowRegion
         id="flowRegion4414"><rect
           id="rect4416"
           width="564.28564"
           height="208.57143"
           x="401.42856"
           y="136.95163"
           style="font-style:normal;font-variant:normal;font-weight:normal;font-stretch:normal;font-size:180px;line-height:125%;font-family:'Times New Roman';-inkscape-font-specification:'Times New Roman, Normal';text-align:start;writing-mode:lr-tb;text-anchor:start;fill:#ffffff" /></flowRegion><flowPara
         id="flowPara4422" /></flowRoot>  </g>
  <g
     inkscape:groupmode="layer"
     id="layer5"
     inkscape:label="border"
     style="display:inline"
     transform="translate(300.03959,-389.94711)">
    <path
       id="path4408"
       d="m -281.89103,409.02534 c 154.08327,-0.009 308.166531,-0.009 462.24985,0 0.01,65.35848 0.01,130.71695 0,196.07543 -154.083319,0.009 -308.16658,0.009 -462.24985,0 -0.01,-65.35848 -0.01,-130.71695 0,-196.07543 z"
       inkscape:connector-curvature="0"
       style="fill:none;fill-opacity:1;stroke:#cccccc;stroke-width:11.4745121;stroke-miterlimit:4;stroke-dasharray:none;stroke-opacity:1" />
  </g>
  <g
     inkscape:groupmode="layer"
     id="layer4"
     inkscape:label="A"
     style="display:inline"
     transform="translate(300.03959,-389.94711)">
    <g
       id="g2471"
       transform="matrix(0.08163291,0,0,0.08163291,-266.44653,423.29441)">
      <path
         style="fill:#fa0000"
         id="path2475"
         d="m 69.639957,2015.75 c -2.4179,-2.2011 -2.703007,-4.1827 -13.129163,-91.25 C 44.831829,1826.9707 45.120523,1831.7549 49.562285,1809.3502 56.623742,1773.7315 72.213594,1744.4976 102.01058,1711 142.11715,1665.9124 183.95871,1624.5389 277,1537.9682 859.86531,995.63867 1275.9447,621.21536 1620,329.42363 c 112.0422,-95.02248 218.6404,-180.4271 244.0215,-195.50572 16.8852,-10.03128 42.0768,-19.42538 77.8459,-29.0292 45.6375,-12.253407 64.2635,-20.39468 81.3518,-35.558248 15.941,-14.145584 21.5862,-16.433772 24.3318,-9.862581 1.6951,4.056817 1.8692,12.043353 0.4283,19.641296 -1.2619,6.654019 -4.8352,14.034224 -13.9882,28.890823 -8.798,14.28058 -22.9616,42.1715 -30.4139,59.89105 -15.466,36.77429 -35.7029,106.83783 -44.0789,152.60895 -1.409,7.7 -4.7679,24.35 -7.464,37 -17.2224,80.80578 -50.9221,258.65922 -78.4561,414.05958 -15.7096,88.66406 -66.6091,382.52242 -73.0847,421.94042 -14.001,85.2254 -25.5959,169.8492 -35.9672,262.5 -3.8019,33.9641 -4.0924,41.63 -2.4694,65.1704 2.4207,35.1123 7.7597,57.5196 19.3906,81.3814 11.2913,23.1651 28.0274,40.0926 47.4368,47.9793 9.0133,3.6625 26.5456,6.4689 40.4123,6.4689 18.4728,0 33.39,-2.668 89.6885,-16.0414 14.3236,-3.4025 18.8183,-4.0861 24.8585,-3.7811 6.2684,0.3165 7.6569,0.7224 9.2649,2.7082 2.6021,3.2135 2.3692,6.3931 -0.7388,10.0867 -4.0306,4.7902 -10.5775,7.5493 -31.0622,13.0909 -24.3406,6.5846 -66.1862,18.542 -108.4276,30.9832 -98.5951,29.0387 -191.9065,52.9953 -206.1875,52.9361 -18.1372,-0.075 -37.3722,-10.8022 -49.1533,-27.4122 -9.7458,-13.7405 -19.1391,-37.9083 -18.2744,-47.0181 0.5249,-5.5299 8.9495,-59.7752 31.7683,-204.5523 37.1161,-235.4891 39.8924,-255.3199 38.6401,-276 -2.0937,-34.5714 -28.4839,-74.4063 -66.5953,-100.5226 -26.8227,-18.3805 -66.4312,-33.0562 -103.5778,-38.3775 -47.5967,-6.8183 -105.4322,-8.7731 -299,-10.106 -184.21553,-1.2684 -230.7631,-2.6803 -284.34879,-8.6247 l -14.34879,-1.5917 -4.15121,3.9326 C 875.36804,1038.873 862.7,1050.4966 849.5,1062.5402 688.3426,1209.5801 538.69665,1358.5223 421.52749,1488.5 c -111.04022,123.1788 -198.29243,229.3547 -258.12645,314.1103 -24.1425,34.1981 -42.57501,68.8418 -53.67933,100.8897 -7.29176,21.0446 -13.610102,49.7487 -18.266773,82.9856 -2.799217,19.9793 -4.949708,26.6463 -9.659014,29.9448 -3.331186,2.3332 -9.206807,2.0044 -12.155966,-0.6804 z M 1675.3151,1032.2043 c 2.6216,-2.8968 7.4678,-14.4101 9.6256,-22.8677 5.5707,-21.83455 19.0866,-96.33695 76.9813,-424.3366 47.9801,-271.82896 56.0876,-316.82044 60.1875,-334 2.6917,-11.27911 3.5154,-21.96391 1.9225,-24.94021 -3.5585,-6.64913 -21.619,3.46491 -58.532,32.77843 -70.5596,56.03309 -360.3037,299.32544 -470.5,395.0694 -146.4747,127.2644 -254.9396,229.60967 -315.38944,297.59483 -12.56219,14.12811 -12.25662,13.53152 -9.66877,18.87731 10.93426,22.58716 62.06311,35.61224 163.55821,41.66634 9.35,0.5578 88.55,1.4084 176,1.8903 263.9669,1.4547 288.9703,2.5103 332.5,14.0373 22.8642,6.0546 21.5622,5.7706 27.095,5.9103 3.2593,0.082 5.0674,-0.406 6.2201,-1.6797 z"
         inkscape:connector-curvature="0" />
    </g>
  </g>
  <g
     inkscape:groupmode="layer"
     id="layer3"
     inkscape:label="Lincoln"
     style="display:inline"
     transform="translate(300.03959,-389.94711)">
    <g
       style="font-style:normal;font-variant:normal;font-weight:normal;font-stretch:normal;font-size:medium;line-height:80.00000119%;font-family:'Times New Roman';-inkscape-font-specification:'Times New Roman, Normal';text-align:start;letter-spacing:0px;word-spacing:0px;writing-mode:lr-tb;text-anchor:start;fill:#ffffff;fill-opacity:1;stroke:none;stroke-width:1px;stroke-linecap:butt;stroke-linejoin:miter;stroke-opacity:1"
       id="g7687"
       transform="scale(1.00925,0.99083478)">
      <path
         inkscape:connector-curvature="0"
         d="m -33.203683,492.17248 1.044101,0.22147 -3.670173,11.64331 -33.221394,0 0,-1.17066 1.61361,0 q 2.720991,0 3.891649,-1.7718 0.664428,-1.01247 0.664428,-4.68264 l 0,-27.68449 q 0,-4.01821 -0.885904,-5.03067 -1.233937,-1.39214 -3.670173,-1.39214 l -1.61361,0 0,-1.17066 19.426605,0 0,1.17066 q -3.417057,-0.0316 -4.809192,0.63279 -1.360495,0.66443 -1.866726,1.67689 -0.506231,1.01246 -0.506231,4.84083 l 0,26.95679 q 0,2.62607 0.506231,3.6069 0.379673,0.66442 1.170659,0.98082 0.790985,0.31639 4.93575,0.31639 l 3.132303,0 q 4.93575,0 6.929033,-0.72771 1.993284,-0.7277 3.638534,-2.56279 1.64525,-1.86672 3.2905,-5.85329 z"
         id="path7673" />
      <path
         inkscape:connector-curvature="0"
         d="m -21.338901,459.046 q 1.328856,0 2.246399,0.94918 0.949183,0.91755 0.949183,2.2464 0,1.32886 -0.949183,2.27804 -0.917543,0.94919 -2.246399,0.94919 -1.328855,0 -2.278038,-0.94919 -0.949183,-0.94918 -0.949183,-2.27804 0,-1.32885 0.917543,-2.2464 0.949183,-0.94918 2.309678,-0.94918 z m 2.626072,15.15529 0,23.28661 q 0,2.72099 0.379674,3.63854 0.411312,0.8859 1.170658,1.32885 0.790986,0.44295 2.847548,0.44295 l 0,1.13902 -14.079543,0 0,-1.13902 q 2.119841,0 2.847548,-0.41131 0.727707,-0.41131 1.139019,-1.36049 0.442952,-0.94919 0.442952,-3.63854 l 0,-11.16872 q 0,-4.71427 -0.284755,-6.1064 -0.221476,-1.01247 -0.696067,-1.39214 -0.474591,-0.41131 -1.297216,-0.41131 -0.885904,0 -2.151481,0.47459 l -0.442952,-1.13902 8.732481,-3.54361 1.392134,0 z"
         id="path7675" />
      <path
         inkscape:connector-curvature="0"
         d="m -2.2919688,480.33933 q 5.0939471,-6.13804 9.7133029,-6.13804 2.3729567,0 4.0814859,1.20229 1.708529,1.17066 2.72099,3.89165 0.696067,1.89837 0.696067,5.82166 l 0,12.37101 q 0,2.75263 0.442952,3.73345 0.348034,0.79099 1.10738,1.23394 0.790986,0.44295 2.879188,0.44295 l 0,1.13902 -14.3326591,0 0,-1.13902 0.6011491,0 q 2.0249231,0 2.8159086,-0.60115 0.822625,-0.63278 1.1390193,-1.83508 0.1265577,-0.47459 0.1265577,-2.97411 l 0,-11.86478 q 0,-3.95493 -1.044101,-5.72674 -1.0124615,-1.80345 -3.4486971,-1.80345 -3.7650914,0 -7.4985433,4.11313 l 0,15.28184 q 0,2.94247 0.3480336,3.63854 0.4429519,0.91754 1.2022981,1.36049 0.79098558,0.41131 3.1639423,0.41131 l 0,1.13902 -14.3326582,0 0,-1.13902 0.632788,0 q 2.2147596,0 2.9741058,-1.10738 0.7909855,-1.13902 0.7909855,-4.30296 l 0,-10.7574 q 0,-5.22051 -0.2531154,-6.35953 -0.2214759,-1.13902 -0.7277067,-1.55033 -0.4745913,-0.41131 -1.2972163,-0.41131 -0.8859039,0 -2.1198409,0.47459 l -0.474592,-1.13902 8.732481,-3.54361 1.3604952,0 0,6.13804 z"
         id="path7677" />
      <path
         inkscape:connector-curvature="0"
         d="m 46.27455,493.02674 q -1.170659,5.72674 -4.587717,8.8274 -3.417057,3.06903 -7.561822,3.06903 -4.93575,0 -8.605923,-4.14477 -3.670173,-4.14476 -3.670173,-11.20035 0,-6.83412 4.049846,-11.10544 4.081486,-4.27132 9.776582,-4.27132 4.271322,0 7.023952,2.27803 2.75263,2.2464 2.75263,4.68264 0,1.2023 -0.790986,1.96164 -0.759346,0.72771 -2.151481,0.72771 -1.866726,0 -2.815908,-1.2023 -0.537871,-0.66443 -0.727707,-2.53115 -0.158197,-1.86673 -1.265577,-2.84755 -1.10738,-0.94918 -3.069024,-0.94918 -3.163942,0 -5.093947,2.34131 -2.562794,3.10067 -2.562794,8.19462 0,5.18886 2.531154,9.17543 2.562794,3.95493 6.897395,3.95493 3.100663,0 5.568538,-2.11985 1.740168,-1.45541 3.385418,-5.28378 l 0.917544,0.44295 z"
         id="path7679" />
      <path
         inkscape:connector-curvature="0"
         d="m 64.562132,474.20129 q 6.581,0 10.567567,4.99902 3.385419,4.27133 3.385419,9.80823 0,3.89164 -1.866726,7.87821 -1.866726,3.98657 -5.157226,6.01149 -3.258861,2.02493 -7.277068,2.02493 -6.54936,0 -10.40937,-5.22051 -3.258861,-4.39788 -3.258861,-9.8715 0,-3.98657 1.961645,-7.90985 1.993283,-3.95493 5.220504,-5.82166 3.227222,-1.89836 6.834116,-1.89836 z m -0.980822,2.05656 q -1.67689,0 -3.385419,1.01246 -1.676889,0.98082 -2.72099,3.48034 -1.044101,2.49951 -1.044101,6.4228 0,6.32788 2.499515,10.9156 2.531153,4.58772 6.644278,4.58772 3.069024,0 5.062308,-2.53116 1.993284,-2.53115 1.993284,-8.70084 0,-7.72002 -3.32214,-12.14954 -2.246399,-3.03738 -5.726735,-3.03738 z"
         id="path7681" />
      <path
         inkscape:connector-curvature="0"
         d="m 92.752854,459.046 0,38.4419 q 0,2.72099 0.379673,3.6069 0.411313,0.8859 1.233938,1.36049 0.822625,0.44295 3.069024,0.44295 l 0,1.13902 -14.206101,0 0,-1.13902 q 1.993283,0 2.72099,-0.41131 0.727707,-0.41131 1.139019,-1.36049 0.411313,-0.94919 0.411313,-3.63854 l 0,-26.324 q 0,-4.90411 -0.221476,-6.01149 -0.221476,-1.13902 -0.727707,-1.55033 -0.474591,-0.41131 -1.233937,-0.41131 -0.822625,0 -2.088202,0.50623 l -0.53787,-1.10738 8.637562,-3.54362 1.423774,0 z"
         id="path7683" />
      <path
         inkscape:connector-curvature="0"
         d="m 109.20537,480.33933 q 5.09395,-6.13804 9.7133,-6.13804 2.37296,0 4.08149,1.20229 1.70853,1.17066 2.72099,3.89165 0.69606,1.89837 0.69606,5.82166 l 0,12.37101 q 0,2.75263 0.44296,3.73345 0.34803,0.79099 1.10738,1.23394 0.79098,0.44295 2.87918,0.44295 l 0,1.13902 -14.33265,0 0,-1.13902 0.60114,0 q 2.02493,0 2.81591,-0.60115 0.82263,-0.63278 1.13902,-1.83508 0.12656,-0.47459 0.12656,-2.97411 l 0,-11.86478 q 0,-3.95493 -1.0441,-5.72674 -1.01246,-1.80345 -3.4487,-1.80345 -3.76509,0 -7.49854,4.11313 l 0,15.28184 q 0,2.94247 0.34803,3.63854 0.44295,0.91754 1.2023,1.36049 0.79099,0.41131 3.16394,0.41131 l 0,1.13902 -14.332656,0 0,-1.13902 0.632786,0 q 2.21476,0 2.97411,-1.10738 0.79098,-1.13902 0.79098,-4.30296 l 0,-10.7574 q 0,-5.22051 -0.25311,-6.35953 -0.22148,-1.13902 -0.72771,-1.55033 -0.47459,-0.41131 -1.29721,-0.41131 -0.88591,0 -2.119846,0.47459 l -0.474591,-1.13902 8.732477,-3.54361 1.3605,0 0,6.13804 z"
         id="path7685" />
    </g>
  </g>
  <g
     inkscape:groupmode="layer"
     id="layer2"
     inkscape:label="THEISTS"
     style="display:inline"
     transform="translate(300.03959,-389.94711)">
    <g
       id="g4486"
       transform="matrix(0.31644406,0,0,0.31644406,-205.09384,426.61759)">
      <path
         id="path4240"
         d="m 864.7207,295.8633 c 14.15208,-4.06632 27.18351,3.87421 40.08687,8.29273 4.57861,-1.66495 6.69181,-6.78787 10.08575,-9.9897 -0.0961,16.80959 0.64036,33.65119 -0.54431,50.42876 -5.6032,-12.48712 -6.59576,-28.43221 -18.85876,-36.78898 -10.30988,-8.32475 -27.5357,-9.70153 -36.27669,1.60091 -6.81989,7.74842 -6.88392,20.36362 0.25615,27.91993 14.82445,15.785 35.60431,23.94966 51.9016,37.94164 9.70153,8.19667 15.0806,21.5803 12.51914,34.1955 -3.13779,17.93022 -20.13949,31.37789 -38.00568,32.40248 -15.14463,1.79302 -28.84845,-6.05145 -43.03254,-9.86163 -2.65751,3.71412 -5.25099,7.46026 -7.90851,11.17438 -0.032,-16.96968 -0.64036,-33.93936 0.57633,-50.87702 5.66723,11.65465 6.81989,26.38305 17.77013,34.77183 12.77529,10.30988 34.57973,12.93538 46.36245,-0.25614 8.83704,-9.66952 6.59576,-25.48654 -2.40137,-34.25954 -17.61005,-16.90565 -43.51282,-24.07774 -57.88902,-44.50539 -12.64721,-20.23554 2.75357,-48.31555 25.35846,-52.18976 z"
         inkscape:connector-curvature="0"
         style="fill:#fa0000;fill-opacity:1" />
      <path
         id="path4242"
         d="m 1090.1657,297.2721 c 13.6398,-5.63521 28.016,-0.38422 40.6312,5.37907 6.7879,4.70668 10.4059,-4.70669 14.4722,-8.48484 -0.096,16.80959 0.6404,33.65119 -0.5443,50.42876 -5.8273,-15.36876 -8.9651,-35.50825 -27.0234,-41.33557 -17.2258,-9.2853 -39.9588,9.70153 -31.666,28.08001 15.0165,24.7181 48.6357,30.00111 64.2286,54.30297 12.9033,21.16407 -2.6575,49.7884 -25.8067,54.78325 -17.6741,5.53916 -34.6438,-3.52201 -51.2292,-8.42081 -2.6255,3.71412 -5.251,7.46026 -7.9086,11.17438 -0.032,-16.96968 -0.6403,-33.93936 0.5764,-50.87702 5.6672,11.65465 6.8199,26.38305 17.7381,34.77183 12.8073,10.30988 34.6117,12.93538 46.3624,-0.25614 8.8691,-9.6375 6.6278,-25.51856 -2.3693,-34.25954 -17.2258,-16.36134 -41.7518,-23.72554 -56.6723,-42.64833 -13.4157,-18.34646 -1.665,-46.07428 19.2109,-52.63802 z"
         inkscape:connector-curvature="0"
         style="fill:#fa0000;fill-opacity:1" />
      <path
         id="path4244"
         d="m 338.44109,298.07256 c 38.42191,-0.12808 76.84383,-0.12808 115.26574,0 0.096,10.88621 0.064,21.80443 -0.41624,32.69064 -5.05888,-8.54887 -7.14007,-20.65178 -17.38591,-24.62204 -9.76557,-2.91366 -20.13949,-1.50486 -30.16121,-1.761 -0.19211,35.28412 0.064,70.56824 -0.16009,105.85237 0.19211,6.65979 -0.16009,13.60776 2.2733,19.94737 4.96283,4.86678 12.4551,5.66723 18.53857,8.64493 -20.20352,0.19211 -40.43906,0.16009 -60.64258,0 6.01943,-2.9777 13.57574,-3.77815 18.37848,-8.74098 2.68953,-6.24356 2.14522,-13.22354 2.43339,-19.85132 -0.22413,-35.28413 0.032,-70.56825 -0.1601,-105.82036 -10.1818,0.19211 -20.68379,-1.12064 -30.64147,1.60092 -10.14979,4.0343 -11.91079,16.26527 -16.90564,24.78213 -0.48028,-10.91823 -0.5123,-21.83645 -0.41624,-32.72266 z"
         inkscape:connector-curvature="0"
         style="fill:#fa0000;fill-opacity:1" />
      <path
         id="path4246"
         d="m 466.41257,298.07256 c 20.1715,-0.16009 40.37502,-0.19211 60.57855,0 -6.59576,3.97026 -18.85876,3.90623 -19.88334,13.28758 -1.88908,17.86619 -0.41624,35.89247 -0.73642,53.82269 23.43736,0.12808 46.87473,0.12808 70.3121,0 -0.83248,-19.4671 2.36935,-39.41448 -2.01715,-58.52938 -5.6032,-4.00228 -12.39107,-5.7953 -18.60261,-8.58089 20.20352,-0.16009 40.37503,-0.19211 60.57855,0 -6.24356,2.75357 -13.09547,4.45054 -18.60261,8.58089 -2.36935,6.40365 -2.01715,13.3196 -2.17724,20.04343 0.12807,27.82387 0.12807,55.67976 0,83.53565 0.16009,6.65979 -0.19211,13.60776 2.20926,20.01141 5.50714,4.13035 12.32703,5.7953 18.57059,8.58089 -20.20352,0.16009 -40.40705,0.19211 -60.61057,0 6.69182,-3.84219 18.73068,-3.6821 19.8193,-13.28758 2.04917,-17.86618 0.5123,-35.89247 0.83248,-53.85471 -23.43737,-0.096 -46.87474,-0.096 -70.3121,0 0.80045,19.4671 -2.36935,39.4465 1.98513,58.5614 5.57118,4.06632 12.39107,5.7953 18.60261,8.58089 -20.17151,0.16009 -40.37503,0.19211 -60.57855,0 6.01943,-2.9777 13.57574,-3.77815 18.44252,-8.70896 2.59348,-6.27558 2.1132,-13.25556 2.36935,-19.88334 -0.12807,-27.85589 -0.16009,-55.71178 0,-83.56767 -0.16009,-6.69181 0.16009,-13.60776 -2.17724,-20.01141 -5.57118,-4.0343 -12.39107,-5.7953 -18.60261,-8.58089 z"
         inkscape:connector-curvature="0"
         style="fill:#fa0000;fill-opacity:1" />
      <path
         id="path4248"
         d="m 629.27246,298.10458 c 36.75697,-0.25615 73.57797,-0.064 110.36695,-0.032 0.096,11.17437 0.25615,22.38076 -0.32018,33.58715 -5.53916,-9.1252 -6.59576,-24.49397 -19.37105,-26.38304 -16.80959,-1.95312 -33.77927,-0.5123 -50.65289,-0.80046 -0.12807,19.17894 -0.12807,38.32586 0,57.5048 13.70382,-0.12808 27.50369,0.96054 41.17548,-0.7044 10.21383,-0.76844 11.65465,-12.80731 16.32932,-19.78729 0.16009,15.84904 0.19211,31.69808 0,47.57914 -4.77072,-6.94797 -6.33962,-18.79472 -16.42537,-19.81931 -13.63978,-1.72898 -27.40763,-0.60834 -41.07943,-0.73642 0.19211,20.93994 -1.08862,41.91191 1.12064,62.75579 16.26528,1.50486 32.81872,2.36935 49.08399,0.0961 14.79244,-2.91366 20.10747,-18.82674 29.36075,-28.78442 -2.9777,12.42309 -7.58833,24.3659 -12.03887,36.34073 -35.82843,-0.12808 -71.65687,0.12807 -107.4853,-0.0961 6.21154,-2.78559 13.09547,-4.45054 18.60261,-8.58089 2.33733,-6.40365 1.98513,-13.35162 2.17724,-20.01141 -0.16009,-27.85589 -0.12807,-55.71178 0,-83.56767 -0.22413,-6.69181 0.12807,-13.63977 -2.14522,-20.04343 -4.93081,-4.96283 -12.6152,-5.53916 -18.69867,-8.51685 z"
         inkscape:connector-curvature="0"
         style="fill:#fa0000;fill-opacity:1" />
      <path
         id="path4250"
         d="m 761.52281,298.07256 c 20.20353,-0.16009 40.40705,-0.19211 60.61057,0 -7.65236,3.74613 -20.93994,4.54659 -20.23554,15.97711 -0.89651,36.21265 -0.76844,72.55338 -0.064,108.79805 -0.76843,11.30245 12.74327,11.97483 20.26756,15.97711 -20.20352,0.16009 -40.43906,0.19211 -60.61056,0 7.65236,-3.74613 20.93994,-4.54659 20.23554,-15.97711 0.86449,-36.21265 0.76844,-72.55338 0.064,-108.79805 0.83248,-11.33446 -12.83932,-11.84676 -20.26756,-15.97711 z"
         inkscape:connector-curvature="0"
         style="fill:#fa0000;fill-opacity:1" />
      <path
         id="path4252"
         d="m 937.19998,298.07256 c 38.42191,-0.12808 76.84382,-0.12808 115.26572,0 0.096,10.88621 0.064,21.80443 -0.4162,32.72266 -5.0589,-8.54888 -7.1401,-20.6838 -17.3859,-24.65406 -9.7656,-2.91366 -20.1395,-1.50486 -30.1612,-1.761 -0.1601,36.37274 -0.032,72.74548 -0.096,109.11823 0.5763,6.01943 -0.6724,13.44767 3.7462,18.31444 5.347,3.04174 11.3344,4.61063 17.0017,7.012 -20.2036,0.19211 -40.43917,0.16009 -60.6427,0 6.01944,-2.9777 13.57575,-3.77815 18.37849,-8.74098 2.68953,-6.24356 2.14522,-13.22354 2.43338,-19.85132 -0.22412,-35.28413 0.032,-70.56825 -0.16009,-105.85237 -10.1818,0.22412 -20.71581,-1.08863 -30.64147,1.63293 -10.14979,4.0343 -11.9108,16.29729 -16.90564,24.81415 -0.48028,-10.91823 -0.5123,-21.83646 -0.41624,-32.75468 z"
         inkscape:connector-curvature="0"
         style="fill:#fa0000;fill-opacity:1" />
    </g>
  </g>
</svg>
